<svg width="17" height="17" viewBox="0 0 17 17" fill="none" xmlns="http://www.w3.org/2000/svg">
<path fill-rule="evenodd" clip-rule="evenodd" d="M4.43525 6.2541e-06C4.45877 6.2541e-06 4.48261 1.41718e-05 4.50679 1.41718e-05L4.53603 6.2541e-06C4.81391 -9.55986e-06 4.99273 -1.74559e-05 5.16754 0.0163263C5.91972 0.0866667 6.6332 0.382198 7.2148 0.864334C7.35001 0.976392 7.47644 1.10284 7.67293 1.29934L8.12861 1.7551C8.79738 2.4238 9.05444 2.67343 9.35142 2.83864C9.5238 2.93455 9.7066 3.01029 9.89637 3.06436C10.2232 3.15752 10.5814 3.16281 11.5271 3.16281H11.8628C12.8694 3.16279 13.6807 3.16277 14.3227 3.24349C14.988 3.32713 15.5533 3.50562 16.0177 3.92332C16.0955 3.99328 16.1695 4.0673 16.2395 4.14508C16.6572 4.60949 16.8357 5.17479 16.9193 5.8401C17 6.48206 17 7.29347 17 8.29995V10.126C17 11.5791 17 12.7301 16.8789 13.6308C16.7543 14.5579 16.4917 15.3082 15.9 15.9C15.3082 16.4917 14.5579 16.7543 13.6308 16.8789C12.7301 17 11.5791 17 10.126 17H6.87402C5.4209 17 4.26993 17 3.36915 16.8789C2.44212 16.7543 1.69179 16.4917 1.10006 15.9C0.508338 15.3082 0.245731 14.5579 0.121094 13.6308C-9.60553e-06 12.7301 -1.64214e-06 11.5791 1.41718e-05 10.126V4.50679C1.41718e-05 4.48261 6.2541e-06 4.45877 6.2541e-06 4.43525C-8.07227e-05 3.80593 -0.00014395 3.40541 0.0651281 3.05948C0.35178 1.54018 1.54018 0.35178 3.05948 0.0651281C3.40541 -0.00014395 3.80593 -8.07227e-05 4.43525 6.2541e-06ZM4.50679 1.18606C3.782 1.18606 3.50179 1.18865 3.27939 1.23061C2.23986 1.42674 1.42674 2.23986 1.23061 3.27939C1.18865 3.50179 1.18606 3.782 1.18606 4.50679V10.0814C1.18606 11.5891 1.18732 12.6603 1.29657 13.4729C1.40352 14.2684 1.60409 14.7267 1.93873 15.0613C2.27336 15.3959 2.73169 15.5965 3.5272 15.7035C4.33977 15.8127 5.4109 15.814 6.9186 15.814H10.0814C11.5891 15.814 12.6603 15.8127 13.4729 15.7035C14.2684 15.5965 14.7267 15.3959 15.0613 15.0613C15.3959 14.7267 15.5965 14.2684 15.7035 13.4729C15.8127 12.6603 15.814 11.5891 15.814 10.0814V8.3402C15.814 7.28399 15.8128 6.54737 15.7426 5.98805C15.6741 5.44354 15.5484 5.15026 15.3576 4.93821C15.3157 4.89155 15.2713 4.84713 15.2246 4.80516C15.0126 4.61445 14.7193 4.48873 14.1748 4.42027C13.6154 4.34995 12.8789 4.34885 11.8226 4.34885H11.5271C11.4977 4.34885 11.4687 4.34885 11.44 4.34886C10.6113 4.34903 10.077 4.34914 9.57124 4.20498C9.29394 4.12595 9.02668 4.01525 8.77477 3.87507C8.31521 3.61939 7.93742 3.24146 7.35159 2.65542C7.33135 2.63512 7.31079 2.61457 7.28999 2.59376L6.8549 2.15867C6.63092 1.93469 6.54522 1.84984 6.45787 1.77743C6.05993 1.44755 5.57176 1.24535 5.05711 1.19722C4.94414 1.18665 4.82356 1.18606 4.50679 1.18606ZM8.5 7.90698C8.82751 7.90698 9.09302 8.17249 9.09302 8.5V9.48837H10.0814C10.4089 9.48837 10.6744 9.75389 10.6744 10.0814C10.6744 10.4089 10.4089 10.6744 10.0814 10.6744H9.09302V11.6628C9.09302 11.9903 8.82751 12.2558 8.5 12.2558C8.17249 12.2558 7.90698 11.9903 7.90698 11.6628V10.6744H6.9186C6.5911 10.6744 6.3256 10.4089 6.3256 10.0814C6.3256 9.75389 6.5911 9.48837 6.9186 9.48837H7.90698V8.5C7.90698 8.17249 8.17249 7.90698 8.5 7.90698Z" fill="#222222"/>
</svg>
