<svg width="10" height="10" viewBox="0 0 10 10" fill="none" xmlns="http://www.w3.org/2000/svg">
<circle cx="5" cy="5" r="4.5" stroke="#949191"/>
<path d="M5.76389 5.45326H4.23611L4 2H6L5.76389 5.45326ZM4.01852 7.10087C4.01852 6.81529 4.10185 6.59404 4.26852 6.43712C4.43519 6.27707 4.67747 6.19704 4.99537 6.19704C5.31019 6.19704 5.54784 6.27707 5.70833 6.43712C5.87191 6.59404 5.9537 6.81529 5.9537 7.10087C5.9537 7.38332 5.86883 7.60457 5.69907 7.76463C5.53241 7.92154 5.29784 8 4.99537 8C4.68981 8 4.45062 7.92154 4.27778 7.76463C4.10494 7.60457 4.01852 7.38332 4.01852 7.10087Z" fill="#949191"/>
</svg>
