<svg width="150" height="16" viewBox="0 0 150 16" fill="none" xmlns="http://www.w3.org/2000/svg">
<g id="Group">
<path id="Vector" fill-rule="evenodd" clip-rule="evenodd" d="M0 15.3341H6.66667L12.1667 8.41439L17.6667 15.3341H24.3333L12.1667 0C8.11111 5.09292 4.05556 10.1858 0 15.3341ZM135.278 8.91261C135.278 9.90905 135.167 9.90906 134.167 9.90906H132.611V7.80546H134.111C135.111 7.86081 135.278 7.86081 135.278 8.91261ZM139.222 15.3341L137.722 11.6251C138.5 11.293 138.833 10.518 138.833 8.96797C138.833 6.03401 137.444 5.81257 135.111 5.81257H129.278V15.3341H132.667V11.9573H134.5L135.556 15.3341H139.222ZM150 15.2234V9.57691H145.167V11.4037H146.556V13.3966C146.556 13.3966 146 13.452 145.111 13.452C143.722 13.452 143.667 13.452 143.667 10.7394C143.667 7.69474 143.722 7.69474 145.167 7.63938C146.722 7.58402 149.889 7.69474 149.889 7.69474V5.86793C149.889 5.86793 148.056 5.53578 145.056 5.53578C140.778 5.53578 140.167 6.14472 140.167 10.6287C140.167 14.8359 140.5 15.4448 145.056 15.4448C148.111 15.5002 150 15.2234 150 15.2234ZM127.778 13.2859H122.778V11.4037H127.444V9.57691H122.778V7.86082H127.722V5.81257H119.333V15.3341H127.778V13.2859ZM114.556 12.4002C114.556 13.3412 114.333 13.3412 113.5 13.3412H111.944V11.4591H113.5C114.389 11.4037 114.556 11.4037 114.556 12.4002ZM114.5 8.74654C114.5 9.52155 114.333 9.52155 113.444 9.52155H111.944V7.80546H113.389C114.278 7.86081 114.5 7.86081 114.5 8.74654ZM118.111 12.6769C118.111 10.518 116.944 10.518 116.944 10.518V10.4626C116.944 10.4626 118.056 10.4626 118.056 8.63582C118.056 5.81257 116.111 5.81257 114.389 5.81257H108.556V15.3341H114.444C116.333 15.3341 118.111 15.3341 118.111 12.6769ZM107.222 12.5662C107.222 10.9055 107.222 10.0198 104.778 9.57691L102.556 9.1894C101.944 9.07869 101.944 9.02333 101.944 8.41439C101.944 7.63938 102.111 7.63938 103.944 7.63938C105.722 7.63938 106.889 7.7501 106.889 7.7501V5.92329C106.889 5.92329 105.278 5.59114 102.667 5.59114C100.333 5.59114 98.4445 5.81257 98.4445 8.46975C98.4445 9.96441 98.4445 10.9609 100.889 11.4037L103.111 11.7912C103.722 11.9019 103.722 12.0127 103.722 12.6769C103.722 13.5073 103.556 13.5073 101.5 13.5073C99.5556 13.5073 98.3333 13.3966 98.3333 13.3966V15.2234C98.3333 15.2234 100 15.5556 102.778 15.5556C105.889 15.5002 107.222 15.3341 107.222 12.5662ZM93.5556 10.7394C93.5556 13.2859 93.5 13.3412 92.1667 13.3412H92.0556C90.6667 13.3412 90.6667 13.3412 90.6667 10.7394V10.6287C90.6667 7.86082 90.7778 7.86082 92.0556 7.86082H92.1667C93.4444 7.86082 93.5556 7.86082 93.5556 10.6287V10.7394ZM97.1111 10.6841C97.1111 6.14472 96.4444 5.6465 92.1667 5.6465C87.8333 5.6465 87.1667 6.14472 87.1667 10.6841C87.1667 15.0573 87.5 15.5556 92.1667 15.5556C96.7222 15.5002 97.1111 15.002 97.1111 10.6841ZM82.3889 8.91261C82.3889 9.90905 82.2778 9.90906 81.2778 9.90906H79.7222V7.80546H81.2222C82.1667 7.86081 82.3889 7.86081 82.3889 8.91261ZM86.2778 15.3341L84.7778 11.6251C85.5556 11.293 85.8889 10.518 85.8889 8.96797C85.8889 6.03401 84.5 5.81257 82.1667 5.81257H76.3333V15.3341H79.7222V11.9573H81.5556L82.6111 15.3341H86.2778ZM72.4444 15.3341L68.8889 10.4626L72.2778 5.81257H68.4444L65.8889 9.41083H65.3889V5.81257H62V15.3341H65.3889V11.5698H65.8889L68.5 15.3341H72.4444ZM60.6111 8.02689V5.81257H51.5V8.02689H54.3333V15.3341H57.7222V8.02689H60.6111ZM50.2222 15.3341V5.81257H45.5L43.6667 12.4002L41.8333 5.81257H37.1667V15.3341H40.2222V8.74654L42.0556 15.3341H45.2222L47.0556 8.74654V15.3341H50.2222ZM33.3333 15.3341H26.6667L17.8333 4.2072L21.1667 0L33.3333 15.3341Z" fill="white"/>
</g>
</svg>
